# xmcd CD database file
#
# Track frame offsets:
#	150
#	39283
#	54879
#	64330
#	73779
#	83396
#	95625
#	106210
#	116189
#	126423
#	143840
#	155109
#	169713
#	180272
#	188258
#	201067
#	210354
#	224183
#
# Disc length: 3319 seconds
#
# Revision: 0
# Processed by: cddbd v1.5.2PL0 Copyright (c) Steve Scherf et al.
# Submitted via: CDex 1.51
#
DISCID=fe0cf512
DTITLE=原舞者 - 牽Ina的手
DYEAR=2005
DGENRE=New Age
TTITLE0=祖源之歌
TTITLE1=頭目之歌
TTITLE2=項鍊
TTITLE3=期待
TTITLE4='布
TTITLE5=歡欣
TTITLE6=等待捕魚人
TTITLE7=迎賓
TTITLE8=戲謔
TTITLE9=炫耀
TTITLE10=歡欣
TTITLE11=希望
TTITLE12=除草
TTITLE13=聚會
TTITLE14=分食鹽
TTITLE15=叮嚀
TTITLE16=休閒
TTITLE17=歡送
EXTD=YEAR: 2005
EXTT0=
EXTT1=
EXTT2=
EXTT3=
EXTT4=
EXTT5=
EXTT6=
EXTT7=
EXTT8=
EXTT9=
EXTT10=
EXTT11=
EXTT12=
EXTT13=
EXTT14=
EXTT15=
EXTT16=
EXTT17=
PLAYORDER=
